# xmcd
#
# Track frame offsets:
#	150
#	18610
#	34016
#	46537
#	63979
#	79897
#	95989
#	115231
#	130556
#	147714
#	164859
#	178547
#
# Disc length: 2578
#
# Revision: 2
# Processed by: cddbd v1.5.1PL0 Copyright (c) Steve Scherf et al.
# Submitted via: CDex 1.40Beta8
# Normalized: r0:TDELIM( - );r1:TSWAP
#
DISCID=a80a100c
DTITLE=Various Artist - Country Music That Changed Our Lives
DYEAR=1998
DGENRE=Country
TTITLE0=Lila McCann - Yippy Ky Yay
TTITLE1=Neal McCoy - Same Boots
TTITLE2=Clay Walker - What's It To You
TTITLE3=JoDee Messina - Even God Must Get The Blues
TTITLE4=Michael Peterson - That's What They Said About The Buffalo
TTITLE5=David Kersh - The Need
TTITLE6=Mila Mason - Closer To Heaven
TTITLE7=Daryle Singletary - The Note
TTITLE8=Bruan White - Tree of Hearts
TTITLE9=Faith Hill - Me
TTITLE10=Dwight Yoakam - Same Fool
TTITLE11=Jeff Carson - Divine Intervention
EXTD=YEAR: 1998 ID3G: 2
EXTT0=
EXTT1=
EXTT2=
EXTT3=
EXTT4=
EXTT5=
EXTT6=
EXTT7=
EXTT8=
EXTT9=
EXTT10=
EXTT11=
PLAYORDER=
